<svg style="object-fit:cover" id="my-svg" version="1" baseProfile="full" width="100%" height="100%" viewBox="0 0 1366 625" xmlns="http://www.w3.org/2000/svg">
    <rect width="1366" height="625" fill="#000"></rect>
    <path transform="scale(1, -1)" style="transform-origin: center center 0px;" d="M 0,625 V 0,250 C 68.65690967108493,214.60622238586154 137.31381934216986,179.2124447717231 194,176 C 250.68618065783014,172.7875552282769 295.4016323024055,201.7564432989691 346,225 C 396.5983676975945,248.2435567010309 453.0796514482081,265.7617820324007 519,267 C 584.9203485517919,268.2382179675993 660.2797619047619,253.1964285714285 708,266 C 755.7202380952381,278.8035714285715 775.8013009327441,319.45250368188516 827,309 C 878.1986990672559,298.54749631811484 960.5150343642613,236.9935567010309 1028,224 C 1095.4849656357387,211.0064432989691 1148.1385616102111,246.5732695139912 1202,259 C 1255.8614383897889,271.4267304860088 1310.9307191948944,260.71336524300443 1366,250 C 1366,250 1366,625 1366,625 Z" stroke="none" stroke-width="0" fill="#3d50fa90" class="transition-all duration-300 ease-in-out delay-150"></path>
    <path transform="scale(1, -1)" style="transform-origin: center center 0px;" d="M 0,625 V 0,375 C 50.10204958271967,390.4607879234168 100.20409916543935,405.92157584683355 157,415 C 213.79590083456065,424.07842415316645 277.28565292096226,426.77448453608247 333,413 C 388.71434707903774,399.22551546391753 436.65328915071177,368.9804860088366 496,340 C 555.3467108492882,311.0195139911634 626.1011904761905,283.3035714285714 692,297 C 757.8988095238095,310.6964285714286 818.9419489445263,365.80522827687776 866,405 C 913.0580510554737,444.19477172312224 946.1310137457044,467.47551546391753 1006,439 C 1065.8689862542956,410.52448453608247 1152.5339960726558,330.2927098674522 1217,311 C 1281.4660039273442,291.7072901325478 1323.733001963672,333.3536450662739 1366,375 C 1366,375 1366,625 1366,625 Z" stroke="none" stroke-width="0" fill="#3d50faff" class="transition-all duration-300 ease-in-out delay-150"></path>
</svg>