<svg id="visual" viewBox="0 0 1080 740" width="1080" height="740" xmlns="http://www.w3.org/2000/svg" xmlns:xlink="http://www.w3.org/1999/xlink" version="1.1"><rect x="0" y="0" width="1080" height="740" fill="#001220"></rect><path d="M0 374L22.5 377.3C45 380.7 90 387.3 135 386.8C180 386.3 225 378.7 270 381.5C315 384.3 360 397.7 405 404.3C450 411 495 411 540 408C585 405 630 399 675 396.3C720 393.7 765 394.3 810 391C855 387.7 900 380.3 945 379.7C990 379 1035 385 1057.5 388L1080 391L1080 0L1057.5 0C1035 0 990 0 945 0C900 0 855 0 810 0C765 0 720 0 675 0C630 0 585 0 540 0C495 0 450 0 405 0C360 0 315 0 270 0C225 0 180 0 135 0C90 0 45 0 22.5 0L0 0Z" fill="#001122"></path><path d="M0 308L22.5 312.7C45 317.3 90 326.7 135 326.8C180 327 225 318 270 308.8C315 299.7 360 290.3 405 287.7C450 285 495 289 540 299.7C585 310.3 630 327.7 675 335.2C720 342.7 765 340.3 810 339C855 337.7 900 337.3 945 328.2C990 319 1035 301 1057.5 292L1080 283L1080 0L1057.5 0C1035 0 990 0 945 0C900 0 855 0 810 0C765 0 720 0 675 0C630 0 585 0 540 0C495 0 450 0 405 0C360 0 315 0 270 0C225 0 180 0 135 0C90 0 45 0 22.5 0L0 0Z" fill="#00255e"></path><path d="M0 267L22.5 255.5C45 244 90 221 135 213.5C180 206 225 214 270 213C315 212 360 202 405 207.7C450 213.3 495 234.7 540 240.8C585 247 630 238 675 236.3C720 234.7 765 240.3 810 236.8C855 233.3 900 220.7 945 213.7C990 206.7 1035 205.3 1057.5 204.7L1080 204L1080 0L1057.5 0C1035 0 990 0 945 0C900 0 855 0 810 0C765 0 720 0 675 0C630 0 585 0 540 0C495 0 450 0 405 0C360 0 315 0 270 0C225 0 180 0 135 0C90 0 45 0 22.5 0L0 0Z" fill="#002f99"></path><path d="M0 197L22.5 185C45 173 90 149 135 138.7C180 128.3 225 131.7 270 139.7C315 147.7 360 160.3 405 162.2C450 164 495 155 540 154C585 153 630 160 675 159.5C720 159 765 151 810 155.2C855 159.3 900 175.7 945 183.3C990 191 1035 190 1057.5 189.5L1080 189L1080 0L1057.5 0C1035 0 990 0 945 0C900 0 855 0 810 0C765 0 720 0 675 0C630 0 585 0 540 0C495 0 450 0 405 0C360 0 315 0 270 0C225 0 180 0 135 0C90 0 45 0 22.5 0L0 0Z" fill="#2b2ccf"></path><path d="M0 115L22.5 109.2C45 103.3 90 91.7 135 90.2C180 88.7 225 97.3 270 102C315 106.7 360 107.3 405 104.2C450 101 495 94 540 88C585 82 630 77 675 77.7C720 78.3 765 84.7 810 84.5C855 84.3 900 77.7 945 77.7C990 77.7 1035 84.3 1057.5 87.7L1080 91L1080 0L1057.5 0C1035 0 990 0 945 0C900 0 855 0 810 0C765 0 720 0 675 0C630 0 585 0 540 0C495 0 450 0 405 0C360 0 315 0 270 0C225 0 180 0 135 0C90 0 45 0 22.5 0L0 0Z" fill="#6600ff"></path></svg>